<svg width="56" height="56" viewBox="0 0 56 56" fill="none" xmlns="http://www.w3.org/2000/svg">
<circle cx="28" cy="28" r="28" fill="#FFF7F0"/>
<g clip-path="url(#clip0_125_462)">
<path d="M20.2839 24.3135H20.5576C21.6113 24.3135 22.4734 25.1755 22.4734 26.2292V35.808C22.4734 36.8617 21.6113 37.7238 20.5576 37.7238H20.2839C19.2303 37.7238 18.3682 36.8617 18.3682 35.808V26.2292C18.3682 25.1755 19.2303 24.3135 20.2839 24.3135ZM27.947 18.5662C29.0007 18.5662 29.8627 19.4283 29.8627 20.4819V35.808C29.8627 36.8617 29.0007 37.7238 27.947 37.7238C26.8933 37.7238 26.0312 36.8617 26.0312 35.808V20.4819C26.0312 19.4283 26.8933 18.5662 27.947 18.5662ZM35.61 29.5134C36.6637 29.5134 37.5258 30.3755 37.5258 31.4291V35.808C37.5258 36.8617 36.6637 37.7238 35.61 37.7238C34.5564 37.7238 33.6943 36.8617 33.6943 35.808V31.4291C33.6943 30.3755 34.5564 29.5134 35.61 29.5134Z" fill="#FF6A00"/>
</g>
<defs>
<clipPath id="clip0_125_462">
<rect width="32.8417" height="32.8417" fill="white" transform="translate(11.5264 11.7241)"/>
</clipPath>
</defs>
</svg>
