<svg width="57" height="56" viewBox="0 0 57 56" fill="none" xmlns="http://www.w3.org/2000/svg">
<circle cx="28.8848" cy="28" r="28" fill="#FFF2F5"/>
<g clip-path="url(#clip0_125_494)">
<path d="M28.5582 26.6397C25.4519 25.8324 24.453 24.9976 24.453 23.6977C24.453 22.2061 25.8351 21.1661 28.1477 21.1661C30.0908 21.1661 31.0624 21.9051 31.4182 23.0819C31.5824 23.6292 32.0339 24.0398 32.6087 24.0398H33.0192C33.9223 24.0398 34.5655 23.1503 34.2508 22.3019C33.676 20.6872 32.335 19.3461 30.2003 18.8261V17.8819C30.2003 16.7462 29.2835 15.8293 28.1477 15.8293C27.0119 15.8293 26.0951 16.7462 26.0951 17.8819V18.7851C23.4404 19.3598 21.3057 21.084 21.3057 23.725C21.3057 26.886 23.9193 28.4597 27.7372 29.3765C31.1582 30.1976 31.8424 31.4018 31.8424 32.6744C31.8424 33.6186 31.1718 35.1238 28.1477 35.1238C25.8898 35.1238 24.7267 34.3165 24.2751 33.167C24.0698 32.6333 23.6046 32.2502 23.0435 32.2502H22.6604C21.7436 32.2502 21.1004 33.1807 21.4425 34.0291C22.2225 35.9312 24.0425 37.0533 26.0951 37.4912V38.408C26.0951 39.5438 27.0119 40.4606 28.1477 40.4606C29.2835 40.4606 30.2003 39.5438 30.2003 38.408V37.5185C32.8687 37.0122 34.9897 35.4659 34.9897 32.6607C34.9897 28.7744 31.6645 27.4471 28.5582 26.6397Z" fill="#FD2254"/>
</g>
<defs>
<clipPath id="clip0_125_494">
<rect width="32.8417" height="32.8417" fill="white" transform="translate(12.4111 11.7241)"/>
</clipPath>
</defs>
</svg>
