<svg width="57" height="56" viewBox="0 0 57 56" fill="none" xmlns="http://www.w3.org/2000/svg">
<circle cx="28.9614" cy="28" r="28" fill="#F3F0FF"/>
<g clip-path="url(#clip0_125_472)">
<path d="M28.6349 26.6397C25.5286 25.8324 24.5297 24.9976 24.5297 23.6977C24.5297 22.2061 25.9117 21.1661 28.2243 21.1661C30.1675 21.1661 31.139 21.9051 31.4948 23.0819C31.659 23.6292 32.1106 24.0398 32.6853 24.0398H33.0959C33.999 24.0398 34.6421 23.1503 34.3274 22.3019C33.7527 20.6872 32.4116 19.3461 30.2769 18.8261V17.8819C30.2769 16.7462 29.3601 15.8293 28.2243 15.8293C27.0886 15.8293 26.1717 16.7462 26.1717 17.8819V18.7851C23.517 19.3598 21.3823 21.084 21.3823 23.725C21.3823 26.886 23.996 28.4597 27.8138 29.3765C31.2348 30.1976 31.919 31.4018 31.919 32.6744C31.919 33.6186 31.2485 35.1238 28.2243 35.1238C25.9665 35.1238 24.8033 34.3165 24.3518 33.167C24.1465 32.6333 23.6812 32.2502 23.1202 32.2502H22.737C21.8202 32.2502 21.1771 33.1807 21.5192 34.0291C22.2992 35.9312 24.1191 37.0533 26.1717 37.4912V38.408C26.1717 39.5438 27.0886 40.4606 28.2243 40.4606C29.3601 40.4606 30.2769 39.5438 30.2769 38.408V37.5185C32.9453 37.0122 35.0664 35.4659 35.0664 32.6607C35.0664 28.7744 31.7411 27.4471 28.6349 26.6397Z" fill="#4318FF"/>
</g>
<defs>
<clipPath id="clip0_125_472">
<rect width="32.8417" height="32.8417" fill="white" transform="translate(12.4878 11.7241)"/>
</clipPath>
</defs>
</svg>
