<svg width="56" height="56" viewBox="0 0 56 56" fill="none" xmlns="http://www.w3.org/2000/svg">
<circle cx="28" cy="28" r="28" fill="#E4FFE7"/>
<g clip-path="url(#clip0_125_505)">
<path d="M27.6734 26.6397C24.5672 25.8324 23.5682 24.9976 23.5682 23.6977C23.5682 22.2061 24.9503 21.1661 27.2629 21.1661C29.206 21.1661 30.1776 21.9051 30.5334 23.0819C30.6976 23.6292 31.1492 24.0398 31.7239 24.0398H32.1344C33.0376 24.0398 33.6807 23.1503 33.366 22.3019C32.7913 20.6872 31.4502 19.3461 29.3155 18.8261V17.8819C29.3155 16.7462 28.3987 15.8293 27.2629 15.8293C26.1271 15.8293 25.2103 16.7462 25.2103 17.8819V18.7851C22.5556 19.3598 20.4209 21.084 20.4209 23.725C20.4209 26.886 23.0345 28.4597 26.8524 29.3765C30.2734 30.1976 30.9576 31.4018 30.9576 32.6744C30.9576 33.6186 30.2871 35.1238 27.2629 35.1238C25.005 35.1238 23.8419 34.3165 23.3903 33.167C23.1851 32.6333 22.7198 32.2502 22.1588 32.2502H21.7756C20.8588 32.2502 20.2156 33.1807 20.5577 34.0291C21.3377 35.9312 23.1577 37.0533 25.2103 37.4912V38.408C25.2103 39.5438 26.1271 40.4606 27.2629 40.4606C28.3987 40.4606 29.3155 39.5438 29.3155 38.408V37.5185C31.9839 37.0122 34.1049 35.4659 34.1049 32.6607C34.1049 28.7744 30.7797 27.4471 27.6734 26.6397Z" fill="#00C914"/>
</g>
<defs>
<clipPath id="clip0_125_505">
<rect width="32.8417" height="32.8417" fill="white" transform="translate(11.5264 11.7241)"/>
</clipPath>
</defs>
</svg>
