<svg width="57" height="56" viewBox="0 0 57 56" fill="none" xmlns="http://www.w3.org/2000/svg">
<circle cx="28.9231" cy="28" r="28" fill="#F1FBFF"/>
<g clip-path="url(#clip0_125_483)">
<path d="M28.5965 26.6397C25.4903 25.8324 24.4913 24.9976 24.4913 23.6977C24.4913 22.2061 25.8734 21.1661 28.186 21.1661C30.1291 21.1661 31.1007 21.9051 31.4565 23.0819C31.6207 23.6292 32.0723 24.0398 32.647 24.0398H33.0575C33.9607 24.0398 34.6038 23.1503 34.2891 22.3019C33.7144 20.6872 32.3733 19.3461 30.2386 18.8261V17.8819C30.2386 16.7462 29.3218 15.8293 28.186 15.8293C27.0502 15.8293 26.1334 16.7462 26.1334 17.8819V18.7851C23.4787 19.3598 21.344 21.084 21.344 23.725C21.344 26.886 23.9576 28.4597 27.7755 29.3765C31.1965 30.1976 31.8807 31.4018 31.8807 32.6744C31.8807 33.6186 31.2102 35.1238 28.186 35.1238C25.9281 35.1238 24.765 34.3165 24.3134 33.167C24.1082 32.6333 23.6429 32.2502 23.0819 32.2502H22.6987C21.7819 32.2502 21.1387 33.1807 21.4808 34.0291C22.2608 35.9312 24.0808 37.0533 26.1334 37.4912V38.408C26.1334 39.5438 27.0502 40.4606 28.186 40.4606C29.3218 40.4606 30.2386 39.5438 30.2386 38.408V37.5185C32.907 37.0122 35.028 35.4659 35.028 32.6607C35.028 28.7744 31.7028 27.4471 28.5965 26.6397Z" fill="#00B7FE"/>
</g>
<defs>
<clipPath id="clip0_125_483">
<rect width="32.8417" height="32.8417" fill="white" transform="translate(12.4495 11.7241)"/>
</clipPath>
</defs>
</svg>
